solid OpenSCAD_Model
  facet normal 0 0 -1
    outer loop
      vertex -12.5 0 0
      vertex -12.2268 2.5989 0
      vertex -12.2268 -2.5989 0
    endloop
  endfacet
  facet normal 0 0 -1
    outer loop
      vertex -12.2268 -2.5989 0
      vertex -12.2268 2.5989 0
      vertex -11.4193 5.08421 0
    endloop
  endfacet
  facet normal 0 0 -1
    outer loop
      vertex -12.2268 -2.5989 0
      vertex -11.4193 5.08421 0
      vertex -10.1127 7.34732 0
    endloop
  endfacet
  facet normal 0 0 -1
    outer loop
      vertex -12.2268 -2.5989 0
      vertex -10.1127 7.34732 0
      vertex -8.36413 9.28931 0
    endloop
  endfacet
  facet normal 0 0 -1
    outer loop
      vertex -12.2268 -2.5989 0
      vertex -8.36413 9.28931 0
      vertex -6.25 10.8253 0
    endloop
  endfacet
  facet normal 0 0 -1
    outer loop
      vertex -12.2268 -2.5989 0
      vertex -6.25 10.8253 0
      vertex -3.86271 11.8882 0
    endloop
  endfacet
  facet normal 0 0 -1
    outer loop
      vertex -12.2268 -2.5989 0
      vertex -3.86271 11.8882 0
      vertex -1.30661 12.4315 0
    endloop
  endfacet
  facet normal 0 0 -1
    outer loop
      vertex -12.2268 -2.5989 0
      vertex -1.30661 12.4315 0
      vertex 1.30661 12.4315 0
    endloop
  endfacet
  facet normal 0 0 -1
    outer loop
      vertex -12.2268 -2.5989 0
      vertex 1.30661 12.4315 0
      vertex 3.86271 11.8882 0
    endloop
  endfacet
  facet normal 0 0 -1
    outer loop
      vertex -3.125 5.41266 0
      vertex 3.86271 11.8882 0
      vertex 6.25 10.8253 0
    endloop
  endfacet
  facet normal 0 0 -1
    outer loop
      vertex 6.25 0 0
      vertex 12.5 0 0
      vertex 12.2268 -2.5989 0
    endloop
  endfacet
  facet normal 0 0 -1
    outer loop
      vertex 3.125 5.41266 0
      vertex 8.36413 9.28931 0
      vertex 10.1127 7.34732 0
    endloop
  endfacet
  facet normal 0 0 -1
    outer loop
      vertex 6.25 0 0
      vertex 12.2268 2.5989 0
      vertex 12.5 0 0
    endloop
  endfacet
  facet normal 0 0 -1
    outer loop
      vertex 3.125 -5.41266 0
      vertex 11.4193 -5.08421 0
      vertex 10.1127 -7.34732 0
    endloop
  endfacet
  facet normal 0 0 -1
    outer loop
      vertex -3.125 -5.41266 0
      vertex 10.1127 -7.34732 0
      vertex 8.36413 -9.28931 0
    endloop
  endfacet
  facet normal 0 0 -1
    outer loop
      vertex -12.2268 -2.5989 0
      vertex 8.36413 -9.28931 0
      vertex 6.25 -10.8253 0
    endloop
  endfacet
  facet normal 0 0 -1
    outer loop
      vertex -12.2268 -2.5989 0
      vertex 6.25 -10.8253 0
      vertex 3.86271 -11.8882 0
    endloop
  endfacet
  facet normal 0 0 -1
    outer loop
      vertex -12.2268 -2.5989 0
      vertex 3.86271 -11.8882 0
      vertex 1.30661 -12.4315 0
    endloop
  endfacet
  facet normal 0 0 -1
    outer loop
      vertex -12.2268 -2.5989 0
      vertex 1.30661 -12.4315 0
      vertex -1.30661 -12.4315 0
    endloop
  endfacet
  facet normal 0 0 -1
    outer loop
      vertex -12.2268 -2.5989 0
      vertex -1.30661 -12.4315 0
      vertex -3.86271 -11.8882 0
    endloop
  endfacet
  facet normal 0 0 -1
    outer loop
      vertex -12.2268 -2.5989 0
      vertex -3.86271 -11.8882 0
      vertex -6.25 -10.8253 0
    endloop
  endfacet
  facet normal 0 0 -1
    outer loop
      vertex -12.2268 -2.5989 0
      vertex -6.25 -10.8253 0
      vertex -8.36413 -9.28931 0
    endloop
  endfacet
  facet normal 0 0 -1
    outer loop
      vertex -12.2268 -2.5989 0
      vertex -8.36413 -9.28931 0
      vertex -10.1127 -7.34732 0
    endloop
  endfacet
  facet normal 0 0 -1
    outer loop
      vertex -12.2268 -2.5989 0
      vertex -10.1127 -7.34732 0
      vertex -11.4193 -5.08421 0
    endloop
  endfacet
  facet normal 0 0 -1
    outer loop
      vertex -3.125 -5.41266 0
      vertex -12.2268 -2.5989 0
      vertex -6.25 0 0
    endloop
  endfacet
  facet normal 0 0 -1
    outer loop
      vertex 6.25 0 0
      vertex 12.2268 -2.5989 0
      vertex 11.4193 -5.08421 0
    endloop
  endfacet
  facet normal 0 0 -1
    outer loop
      vertex -12.2268 -2.5989 0
      vertex -3.125 -5.41266 0
      vertex 8.36413 -9.28931 0
    endloop
  endfacet
  facet normal 0 0 -1
    outer loop
      vertex 6.25 0 0
      vertex 11.4193 -5.08421 0
      vertex 3.125 -5.41266 0
    endloop
  endfacet
  facet normal 0 0 -1
    outer loop
      vertex -12.2268 -2.5989 0
      vertex 3.86271 11.8882 0
      vertex -3.125 5.41266 0
    endloop
  endfacet
  facet normal 0 0 -1
    outer loop
      vertex 3.125 5.41266 0
      vertex 10.1127 7.34732 0
      vertex 11.4193 5.08421 0
    endloop
  endfacet
  facet normal 0 0 -1
    outer loop
      vertex -6.25 0 0
      vertex -12.2268 -2.5989 0
      vertex -3.125 5.41266 0
    endloop
  endfacet
  facet normal 0 0 -1
    outer loop
      vertex -3.125 5.41266 0
      vertex 6.25 10.8253 0
      vertex 8.36413 9.28931 0
    endloop
  endfacet
  facet normal 0 0 -1
    outer loop
      vertex -3.125 5.41266 0
      vertex 8.36413 9.28931 0
      vertex 3.125 5.41266 0
    endloop
  endfacet
  facet normal 0 0 -1
    outer loop
      vertex 3.125 5.41266 0
      vertex 11.4193 5.08421 0
      vertex 12.2268 2.5989 0
    endloop
  endfacet
  facet normal 0 0 -1
    outer loop
      vertex 3.125 5.41266 0
      vertex 12.2268 2.5989 0
      vertex 6.25 0 0
    endloop
  endfacet
  facet normal 0 0 -1
    outer loop
      vertex 3.125 -5.41266 0
      vertex 10.1127 -7.34732 0
      vertex -3.125 -5.41266 0
    endloop
  endfacet
  facet normal -0.994522 0.104528 0
    outer loop
      vertex -12.5 0 0
      vertex -12.5 0 10
      vertex -12.2268 2.5989 0
    endloop
  endfacet
  facet normal -0.994522 0.104528 0
    outer loop
      vertex -12.2268 2.5989 0
      vertex -12.5 0 10
      vertex -12.2268 2.5989 10
    endloop
  endfacet
  facet normal -0.994522 -0.104528 0
    outer loop
      vertex -12.5 0 0
      vertex -12.2268 -2.5989 0
      vertex -12.5 0 10
    endloop
  endfacet
  facet normal -0.994522 -0.104528 0
    outer loop
      vertex -12.5 0 10
      vertex -12.2268 -2.5989 0
      vertex -12.2268 -2.5989 10
    endloop
  endfacet
  facet normal -0.951056 -0.309017 0
    outer loop
      vertex -12.2268 -2.5989 0
      vertex -11.4193 -5.08421 0
      vertex -12.2268 -2.5989 10
    endloop
  endfacet
  facet normal -0.951056 -0.309017 0
    outer loop
      vertex -12.2268 -2.5989 10
      vertex -11.4193 -5.08421 0
      vertex -11.4193 -5.08421 10
    endloop
  endfacet
  facet normal -0.866025 -0.5 0
    outer loop
      vertex -11.4193 -5.08421 0
      vertex -10.1127 -7.34732 0
      vertex -11.4193 -5.08421 10
    endloop
  endfacet
  facet normal -0.866025 -0.5 0
    outer loop
      vertex -11.4193 -5.08421 10
      vertex -10.1127 -7.34732 0
      vertex -10.1127 -7.34732 10
    endloop
  endfacet
  facet normal -0.743145 -0.669131 0
    outer loop
      vertex -10.1127 -7.34732 0
      vertex -8.36413 -9.28931 0
      vertex -10.1127 -7.34732 10
    endloop
  endfacet
  facet normal -0.743145 -0.669131 0
    outer loop
      vertex -10.1127 -7.34732 10
      vertex -8.36413 -9.28931 0
      vertex -8.36413 -9.28931 10
    endloop
  endfacet
  facet normal -0.587785 -0.809017 0
    outer loop
      vertex -8.36413 -9.28931 10
      vertex -8.36413 -9.28931 0
      vertex -6.25 -10.8253 0
    endloop
  endfacet
  facet normal -0.587785 -0.809017 0
    outer loop
      vertex -6.25 -10.8253 10
      vertex -8.36413 -9.28931 10
      vertex -6.25 -10.8253 0
    endloop
  endfacet
  facet normal -0.406736 -0.913546 0
    outer loop
      vertex -6.25 -10.8253 10
      vertex -6.25 -10.8253 0
      vertex -3.86271 -11.8882 0
    endloop
  endfacet
  facet normal -0.406736 -0.913546 0
    outer loop
      vertex -3.86271 -11.8882 10
      vertex -6.25 -10.8253 10
      vertex -3.86271 -11.8882 0
    endloop
  endfacet
  facet normal -0.207912 -0.978148 0
    outer loop
      vertex -3.86271 -11.8882 10
      vertex -3.86271 -11.8882 0
      vertex -1.30661 -12.4315 0
    endloop
  endfacet
  facet normal -0.207912 -0.978148 0
    outer loop
      vertex -1.30661 -12.4315 10
      vertex -3.86271 -11.8882 10
      vertex -1.30661 -12.4315 0
    endloop
  endfacet
  facet normal 0 -1 0
    outer loop
      vertex -1.30661 -12.4315 10
      vertex -1.30661 -12.4315 0
      vertex 1.30661 -12.4315 0
    endloop
  endfacet
  facet normal 0 -1 0
    outer loop
      vertex 1.30661 -12.4315 10
      vertex -1.30661 -12.4315 10
      vertex 1.30661 -12.4315 0
    endloop
  endfacet
  facet normal 0.207912 -0.978148 0
    outer loop
      vertex 1.30661 -12.4315 10
      vertex 1.30661 -12.4315 0
      vertex 3.86271 -11.8882 0
    endloop
  endfacet
  facet normal 0.207912 -0.978148 0
    outer loop
      vertex 3.86271 -11.8882 10
      vertex 1.30661 -12.4315 10
      vertex 3.86271 -11.8882 0
    endloop
  endfacet
  facet normal 0.406736 -0.913546 0
    outer loop
      vertex 3.86271 -11.8882 10
      vertex 3.86271 -11.8882 0
      vertex 6.25 -10.8253 0
    endloop
  endfacet
  facet normal 0.406736 -0.913546 0
    outer loop
      vertex 6.25 -10.8253 10
      vertex 3.86271 -11.8882 10
      vertex 6.25 -10.8253 0
    endloop
  endfacet
  facet normal 0.587785 -0.809017 0
    outer loop
      vertex 6.25 -10.8253 10
      vertex 6.25 -10.8253 0
      vertex 8.36413 -9.28931 0
    endloop
  endfacet
  facet normal 0.587785 -0.809017 0
    outer loop
      vertex 8.36413 -9.28931 10
      vertex 6.25 -10.8253 10
      vertex 8.36413 -9.28931 0
    endloop
  endfacet
  facet normal 0.743145 -0.669131 0
    outer loop
      vertex 8.36413 -9.28931 10
      vertex 8.36413 -9.28931 0
      vertex 10.1127 -7.34732 0
    endloop
  endfacet
  facet normal 0.743145 -0.669131 0
    outer loop
      vertex 10.1127 -7.34732 10
      vertex 8.36413 -9.28931 10
      vertex 10.1127 -7.34732 0
    endloop
  endfacet
  facet normal 0.866025 -0.5 0
    outer loop
      vertex 10.1127 -7.34732 10
      vertex 10.1127 -7.34732 0
      vertex 11.4193 -5.08421 0
    endloop
  endfacet
  facet normal 0.866025 -0.5 0
    outer loop
      vertex 11.4193 -5.08421 10
      vertex 10.1127 -7.34732 10
      vertex 11.4193 -5.08421 0
    endloop
  endfacet
  facet normal 0.951056 -0.309017 0
    outer loop
      vertex 11.4193 -5.08421 10
      vertex 11.4193 -5.08421 0
      vertex 12.2268 -2.5989 0
    endloop
  endfacet
  facet normal 0.951056 -0.309017 0
    outer loop
      vertex 12.2268 -2.5989 10
      vertex 11.4193 -5.08421 10
      vertex 12.2268 -2.5989 0
    endloop
  endfacet
  facet normal 0.994522 -0.104528 0
    outer loop
      vertex 12.2268 -2.5989 10
      vertex 12.2268 -2.5989 0
      vertex 12.5 0 0
    endloop
  endfacet
  facet normal 0.994522 -0.104528 0
    outer loop
      vertex 12.5 0 10
      vertex 12.2268 -2.5989 10
      vertex 12.5 0 0
    endloop
  endfacet
  facet normal 0.994522 0.104528 0
    outer loop
      vertex 12.5 0 0
      vertex 12.2268 2.5989 0
      vertex 12.2268 2.5989 10
    endloop
  endfacet
  facet normal 0.994522 0.104528 0
    outer loop
      vertex 12.5 0 10
      vertex 12.5 0 0
      vertex 12.2268 2.5989 10
    endloop
  endfacet
  facet normal 0.951056 0.309017 0
    outer loop
      vertex 12.2268 2.5989 0
      vertex 11.4193 5.08421 0
      vertex 11.4193 5.08421 10
    endloop
  endfacet
  facet normal 0.951056 0.309017 0
    outer loop
      vertex 12.2268 2.5989 10
      vertex 12.2268 2.5989 0
      vertex 11.4193 5.08421 10
    endloop
  endfacet
  facet normal 0.866025 0.5 0
    outer loop
      vertex 11.4193 5.08421 0
      vertex 10.1127 7.34732 0
      vertex 10.1127 7.34732 10
    endloop
  endfacet
  facet normal 0.866025 0.5 0
    outer loop
      vertex 11.4193 5.08421 10
      vertex 11.4193 5.08421 0
      vertex 10.1127 7.34732 10
    endloop
  endfacet
  facet normal 0.743145 0.669131 0
    outer loop
      vertex 10.1127 7.34732 0
      vertex 8.36413 9.28931 0
      vertex 8.36413 9.28931 10
    endloop
  endfacet
  facet normal 0.743145 0.669131 0
    outer loop
      vertex 10.1127 7.34732 10
      vertex 10.1127 7.34732 0
      vertex 8.36413 9.28931 10
    endloop
  endfacet
  facet normal 0.587785 0.809017 0
    outer loop
      vertex 6.25 10.8253 0
      vertex 6.25 10.8253 10
      vertex 8.36413 9.28931 0
    endloop
  endfacet
  facet normal 0.587785 0.809017 0
    outer loop
      vertex 8.36413 9.28931 0
      vertex 6.25 10.8253 10
      vertex 8.36413 9.28931 10
    endloop
  endfacet
  facet normal 0.406736 0.913546 0
    outer loop
      vertex 3.86271 11.8882 0
      vertex 3.86271 11.8882 10
      vertex 6.25 10.8253 0
    endloop
  endfacet
  facet normal 0.406736 0.913546 0
    outer loop
      vertex 6.25 10.8253 0
      vertex 3.86271 11.8882 10
      vertex 6.25 10.8253 10
    endloop
  endfacet
  facet normal 0.207912 0.978148 0
    outer loop
      vertex 1.30661 12.4315 0
      vertex 1.30661 12.4315 10
      vertex 3.86271 11.8882 0
    endloop
  endfacet
  facet normal 0.207912 0.978148 0
    outer loop
      vertex 3.86271 11.8882 0
      vertex 1.30661 12.4315 10
      vertex 3.86271 11.8882 10
    endloop
  endfacet
  facet normal 0 1 0
    outer loop
      vertex -1.30661 12.4315 0
      vertex -1.30661 12.4315 10
      vertex 1.30661 12.4315 0
    endloop
  endfacet
  facet normal 0 1 0
    outer loop
      vertex 1.30661 12.4315 0
      vertex -1.30661 12.4315 10
      vertex 1.30661 12.4315 10
    endloop
  endfacet
  facet normal -0.207912 0.978148 0
    outer loop
      vertex -3.86271 11.8882 0
      vertex -3.86271 11.8882 10
      vertex -1.30661 12.4315 0
    endloop
  endfacet
  facet normal -0.207912 0.978148 0
    outer loop
      vertex -1.30661 12.4315 0
      vertex -3.86271 11.8882 10
      vertex -1.30661 12.4315 10
    endloop
  endfacet
  facet normal -0.406736 0.913546 0
    outer loop
      vertex -6.25 10.8253 0
      vertex -6.25 10.8253 10
      vertex -3.86271 11.8882 0
    endloop
  endfacet
  facet normal -0.406736 0.913546 0
    outer loop
      vertex -3.86271 11.8882 0
      vertex -6.25 10.8253 10
      vertex -3.86271 11.8882 10
    endloop
  endfacet
  facet normal -0.587785 0.809017 0
    outer loop
      vertex -8.36413 9.28931 0
      vertex -8.36413 9.28931 10
      vertex -6.25 10.8253 0
    endloop
  endfacet
  facet normal -0.587785 0.809017 0
    outer loop
      vertex -6.25 10.8253 0
      vertex -8.36413 9.28931 10
      vertex -6.25 10.8253 10
    endloop
  endfacet
  facet normal -0.743145 0.669131 0
    outer loop
      vertex -10.1127 7.34732 0
      vertex -10.1127 7.34732 10
      vertex -8.36413 9.28931 0
    endloop
  endfacet
  facet normal -0.743145 0.669131 0
    outer loop
      vertex -8.36413 9.28931 0
      vertex -10.1127 7.34732 10
      vertex -8.36413 9.28931 10
    endloop
  endfacet
  facet normal -0.866025 0.5 0
    outer loop
      vertex -11.4193 5.08421 0
      vertex -11.4193 5.08421 10
      vertex -10.1127 7.34732 0
    endloop
  endfacet
  facet normal -0.866025 0.5 0
    outer loop
      vertex -10.1127 7.34732 0
      vertex -11.4193 5.08421 10
      vertex -10.1127 7.34732 10
    endloop
  endfacet
  facet normal -0.951056 0.309017 0
    outer loop
      vertex -12.2268 2.5989 0
      vertex -12.2268 2.5989 10
      vertex -11.4193 5.08421 0
    endloop
  endfacet
  facet normal -0.951056 0.309017 0
    outer loop
      vertex -11.4193 5.08421 0
      vertex -12.2268 2.5989 10
      vertex -11.4193 5.08421 10
    endloop
  endfacet
  facet normal 0.866025 -0.5 0
    outer loop
      vertex -3.125 5.41266 0
      vertex -3.125 5.41266 5
      vertex -6.25 0 5
    endloop
  endfacet
  facet normal 0.866025 -0.5 0
    outer loop
      vertex -6.25 0 0
      vertex -3.125 5.41266 0
      vertex -6.25 0 5
    endloop
  endfacet
  facet normal 0.866025 0.5 0
    outer loop
      vertex -6.25 0 5
      vertex -3.125 -5.41266 5
      vertex -3.125 -5.41266 0
    endloop
  endfacet
  facet normal 0.866025 0.5 0
    outer loop
      vertex -6.25 0 0
      vertex -6.25 0 5
      vertex -3.125 -5.41266 0
    endloop
  endfacet
  facet normal 0 -1 0
    outer loop
      vertex 3.125 5.41266 0
      vertex 3.125 5.41266 5
      vertex -3.125 5.41266 5
    endloop
  endfacet
  facet normal 0 -1 0
    outer loop
      vertex -3.125 5.41266 0
      vertex 3.125 5.41266 0
      vertex -3.125 5.41266 5
    endloop
  endfacet
  facet normal -0.866025 -0.5 0
    outer loop
      vertex 6.25 0 5
      vertex 3.125 5.41266 5
      vertex 6.25 0 0
    endloop
  endfacet
  facet normal -0.866025 -0.5 0
    outer loop
      vertex 6.25 0 0
      vertex 3.125 5.41266 5
      vertex 3.125 5.41266 0
    endloop
  endfacet
  facet normal -0.866025 0.5 0
    outer loop
      vertex 6.25 0 5
      vertex 6.25 0 0
      vertex 3.125 -5.41266 5
    endloop
  endfacet
  facet normal -0.866025 0.5 0
    outer loop
      vertex 3.125 -5.41266 5
      vertex 6.25 0 0
      vertex 3.125 -5.41266 0
    endloop
  endfacet
  facet normal 0 1 0
    outer loop
      vertex 3.125 -5.41266 5
      vertex 3.125 -5.41266 0
      vertex -3.125 -5.41266 5
    endloop
  endfacet
  facet normal 0 1 0
    outer loop
      vertex -3.125 -5.41266 5
      vertex 3.125 -5.41266 0
      vertex -3.125 -5.41266 0
    endloop
  endfacet
  facet normal 0 0 1
    outer loop
      vertex -12.2268 2.5989 10
      vertex -12.5 0 10
      vertex -12.2268 -2.5989 10
    endloop
  endfacet
  facet normal 0 0 1
    outer loop
      vertex -10.1127 -7.34732 10
      vertex -12.2268 2.5989 10
      vertex -11.4193 -5.08421 10
    endloop
  endfacet
  facet normal 0 0 1
    outer loop
      vertex -11.4193 -5.08421 10
      vertex -12.2268 2.5989 10
      vertex -12.2268 -2.5989 10
    endloop
  endfacet
  facet normal 0 0 1
    outer loop
      vertex -8.36413 -9.28931 10
      vertex -12.2268 2.5989 10
      vertex -10.1127 -7.34732 10
    endloop
  endfacet
  facet normal 0 0 1
    outer loop
      vertex -6.25 -10.8253 10
      vertex -12.2268 2.5989 10
      vertex -8.36413 -9.28931 10
    endloop
  endfacet
  facet normal 0 0 1
    outer loop
      vertex -3.86271 -11.8882 10
      vertex -12.2268 2.5989 10
      vertex -6.25 -10.8253 10
    endloop
  endfacet
  facet normal 0 0 1
    outer loop
      vertex -1.30661 -12.4315 10
      vertex -12.2268 2.5989 10
      vertex -3.86271 -11.8882 10
    endloop
  endfacet
  facet normal 0 0 1
    outer loop
      vertex 1.30661 -12.4315 10
      vertex -12.2268 2.5989 10
      vertex -1.30661 -12.4315 10
    endloop
  endfacet
  facet normal 0 0 1
    outer loop
      vertex 3.86271 -11.8882 10
      vertex -12.2268 2.5989 10
      vertex 1.30661 -12.4315 10
    endloop
  endfacet
  facet normal 0 0 1
    outer loop
      vertex 6.25 -10.8253 10
      vertex -12.2268 2.5989 10
      vertex 3.86271 -11.8882 10
    endloop
  endfacet
  facet normal 0 0 1
    outer loop
      vertex 8.36413 -9.28931 10
      vertex -12.2268 2.5989 10
      vertex 6.25 -10.8253 10
    endloop
  endfacet
  facet normal 0 0 1
    outer loop
      vertex -1.38296 -3.64656 10
      vertex -12.2268 2.5989 10
      vertex 8.36413 -9.28931 10
    endloop
  endfacet
  facet normal 0 0 1
    outer loop
      vertex -2.91919 2.58618 10
      vertex -1.38296 3.64656 10
      vertex -12.2268 2.5989 10
    endloop
  endfacet
  facet normal 0 0 1
    outer loop
      vertex 3.9 0 10
      vertex 3.45328 -1.81242 10
      vertex 12.2268 -2.5989 10
    endloop
  endfacet
  facet normal 0 0 1
    outer loop
      vertex 0.470093 3.87156 10
      vertex 12.2268 2.5989 10
      vertex 11.4193 5.08421 10
    endloop
  endfacet
  facet normal 0 0 1
    outer loop
      vertex 10.1127 7.34732 10
      vertex -12.2268 2.5989 10
      vertex 11.4193 5.08421 10
    endloop
  endfacet
  facet normal 0 0 1
    outer loop
      vertex 8.36413 9.28931 10
      vertex -12.2268 2.5989 10
      vertex 10.1127 7.34732 10
    endloop
  endfacet
  facet normal 0 0 1
    outer loop
      vertex 6.25 10.8253 10
      vertex -12.2268 2.5989 10
      vertex 8.36413 9.28931 10
    endloop
  endfacet
  facet normal 0 0 1
    outer loop
      vertex 3.86271 11.8882 10
      vertex -12.2268 2.5989 10
      vertex 6.25 10.8253 10
    endloop
  endfacet
  facet normal 0 0 1
    outer loop
      vertex 1.30661 12.4315 10
      vertex -12.2268 2.5989 10
      vertex 3.86271 11.8882 10
    endloop
  endfacet
  facet normal 0 0 1
    outer loop
      vertex -1.30661 12.4315 10
      vertex -12.2268 2.5989 10
      vertex 1.30661 12.4315 10
    endloop
  endfacet
  facet normal 0 0 1
    outer loop
      vertex -3.86271 11.8882 10
      vertex -12.2268 2.5989 10
      vertex -1.30661 12.4315 10
    endloop
  endfacet
  facet normal 0 0 1
    outer loop
      vertex -6.25 10.8253 10
      vertex -12.2268 2.5989 10
      vertex -3.86271 11.8882 10
    endloop
  endfacet
  facet normal 0 0 1
    outer loop
      vertex -8.36413 9.28931 10
      vertex -12.2268 2.5989 10
      vertex -6.25 10.8253 10
    endloop
  endfacet
  facet normal 0 0 1
    outer loop
      vertex -10.1127 7.34732 10
      vertex -12.2268 2.5989 10
      vertex -8.36413 9.28931 10
    endloop
  endfacet
  facet normal 0 0 1
    outer loop
      vertex -11.4193 5.08421 10
      vertex -12.2268 2.5989 10
      vertex -10.1127 7.34732 10
    endloop
  endfacet
  facet normal 0 0 1
    outer loop
      vertex 3.45328 -1.81242 10
      vertex 2.21545 -3.20964 10
      vertex 11.4193 -5.08421 10
    endloop
  endfacet
  facet normal 0 0 1
    outer loop
      vertex 0.470093 3.87156 10
      vertex 2.21545 3.20964 10
      vertex 12.2268 2.5989 10
    endloop
  endfacet
  facet normal 0 0 1
    outer loop
      vertex 2.21545 3.20964 10
      vertex 3.45328 1.81242 10
      vertex 12.2268 2.5989 10
    endloop
  endfacet
  facet normal 0 0 1
    outer loop
      vertex 0.470093 3.87156 10
      vertex -12.2268 2.5989 10
      vertex -1.38296 3.64656 10
    endloop
  endfacet
  facet normal 0 0 1
    outer loop
      vertex 3.45328 1.81242 10
      vertex 3.9 0 10
      vertex 12.5 0 10
    endloop
  endfacet
  facet normal 0 0 1
    outer loop
      vertex 11.4193 5.08421 10
      vertex -12.2268 2.5989 10
      vertex 0.470093 3.87156 10
    endloop
  endfacet
  facet normal 0 0 1
    outer loop
      vertex 12.2268 2.5989 10
      vertex 3.45328 1.81242 10
      vertex 12.5 0 10
    endloop
  endfacet
  facet normal 0 0 1
    outer loop
      vertex 12.5 0 10
      vertex 3.9 0 10
      vertex 12.2268 -2.5989 10
    endloop
  endfacet
  facet normal 0 0 1
    outer loop
      vertex 12.2268 -2.5989 10
      vertex 3.45328 -1.81242 10
      vertex 11.4193 -5.08421 10
    endloop
  endfacet
  facet normal 0 0 1
    outer loop
      vertex -3.78667 0.933331 10
      vertex -2.91919 2.58618 10
      vertex -12.2268 2.5989 10
    endloop
  endfacet
  facet normal 0 0 1
    outer loop
      vertex 11.4193 -5.08421 10
      vertex 2.21545 -3.20964 10
      vertex 10.1127 -7.34732 10
    endloop
  endfacet
  facet normal 0 0 1
    outer loop
      vertex 10.1127 -7.34732 10
      vertex 0.470093 -3.87156 10
      vertex 8.36413 -9.28931 10
    endloop
  endfacet
  facet normal 0 0 1
    outer loop
      vertex 0.470093 -3.87156 10
      vertex -1.38296 -3.64656 10
      vertex 8.36413 -9.28931 10
    endloop
  endfacet
  facet normal 0 0 1
    outer loop
      vertex -2.91919 -2.58618 10
      vertex -12.2268 2.5989 10
      vertex -1.38296 -3.64656 10
    endloop
  endfacet
  facet normal 0 0 1
    outer loop
      vertex 2.21545 -3.20964 10
      vertex 0.470093 -3.87156 10
      vertex 10.1127 -7.34732 10
    endloop
  endfacet
  facet normal 0 0 1
    outer loop
      vertex -2.91919 -2.58618 10
      vertex -3.78667 -0.933331 10
      vertex -12.2268 2.5989 10
    endloop
  endfacet
  facet normal 0 0 1
    outer loop
      vertex -3.78667 -0.933331 10
      vertex -3.78667 0.933331 10
      vertex -12.2268 2.5989 10
    endloop
  endfacet
  facet normal 0 0 -1
    outer loop
      vertex -1.38296 3.64656 5
      vertex -3.125 5.41266 5
      vertex 0.470093 3.87156 5
    endloop
  endfacet
  facet normal 0 0 -1
    outer loop
      vertex 2.21545 -3.20964 5
      vertex 6.25 0 5
      vertex 3.125 -5.41266 5
    endloop
  endfacet
  facet normal 0 0 -1
    outer loop
      vertex -1.38296 -3.64656 5
      vertex 3.125 -5.41266 5
      vertex -3.125 -5.41266 5
    endloop
  endfacet
  facet normal 0 0 -1
    outer loop
      vertex -3.78667 -0.933331 5
      vertex -3.125 -5.41266 5
      vertex -6.25 0 5
    endloop
  endfacet
  facet normal 0 0 -1
    outer loop
      vertex -3.78667 0.933331 5
      vertex -3.78667 -0.933331 5
      vertex -6.25 0 5
    endloop
  endfacet
  facet normal 0 0 -1
    outer loop
      vertex 2.21545 -3.20964 5
      vertex 3.125 -5.41266 5
      vertex 0.470093 -3.87156 5
    endloop
  endfacet
  facet normal 0 0 -1
    outer loop
      vertex 0.470093 -3.87156 5
      vertex 3.125 -5.41266 5
      vertex -1.38296 -3.64656 5
    endloop
  endfacet
  facet normal 0 0 -1
    outer loop
      vertex -2.91919 -2.58618 5
      vertex -1.38296 -3.64656 5
      vertex -3.125 -5.41266 5
    endloop
  endfacet
  facet normal 0 0 -1
    outer loop
      vertex 3.45328 -1.81242 5
      vertex 6.25 0 5
      vertex 2.21545 -3.20964 5
    endloop
  endfacet
  facet normal 0 0 -1
    outer loop
      vertex 3.45328 1.81242 5
      vertex 6.25 0 5
      vertex 3.9 0 5
    endloop
  endfacet
  facet normal 0 0 -1
    outer loop
      vertex 3.9 0 5
      vertex 6.25 0 5
      vertex 3.45328 -1.81242 5
    endloop
  endfacet
  facet normal 0 0 -1
    outer loop
      vertex 3.125 5.41266 5
      vertex 6.25 0 5
      vertex 3.45328 1.81242 5
    endloop
  endfacet
  facet normal 0 0 -1
    outer loop
      vertex 3.125 5.41266 5
      vertex 3.45328 1.81242 5
      vertex 2.21545 3.20964 5
    endloop
  endfacet
  facet normal 0 0 -1
    outer loop
      vertex 3.125 5.41266 5
      vertex 2.21545 3.20964 5
      vertex -3.125 5.41266 5
    endloop
  endfacet
  facet normal 0 0 -1
    outer loop
      vertex 2.21545 3.20964 5
      vertex 0.470093 3.87156 5
      vertex -3.125 5.41266 5
    endloop
  endfacet
  facet normal 0 0 -1
    outer loop
      vertex -2.91919 2.58618 5
      vertex -3.125 5.41266 5
      vertex -1.38296 3.64656 5
    endloop
  endfacet
  facet normal 0 0 -1
    outer loop
      vertex -3.78667 0.933331 5
      vertex -3.125 5.41266 5
      vertex -2.91919 2.58618 5
    endloop
  endfacet
  facet normal 0 0 -1
    outer loop
      vertex -3.125 5.41266 5
      vertex -3.78667 0.933331 5
      vertex -6.25 0 5
    endloop
  endfacet
  facet normal 0 0 -1
    outer loop
      vertex -2.91919 -2.58618 5
      vertex -3.125 -5.41266 5
      vertex -3.78667 -0.933331 5
    endloop
  endfacet
  facet normal 0.885456 0.464723 0
    outer loop
      vertex -3.78667 -0.933331 10
      vertex -2.91919 -2.58618 10
      vertex -2.91919 -2.58618 5
    endloop
  endfacet
  facet normal 0.885456 0.464723 0
    outer loop
      vertex -3.78667 -0.933331 5
      vertex -3.78667 -0.933331 10
      vertex -2.91919 -2.58618 5
    endloop
  endfacet
  facet normal 1 0 0
    outer loop
      vertex -3.78667 0.933331 5
      vertex -3.78667 0.933331 10
      vertex -3.78667 -0.933331 10
    endloop
  endfacet
  facet normal 1 0 0
    outer loop
      vertex -3.78667 -0.933331 5
      vertex -3.78667 0.933331 5
      vertex -3.78667 -0.933331 10
    endloop
  endfacet
  facet normal 0.568065 0.822984 0
    outer loop
      vertex -1.38296 -3.64656 10
      vertex -1.38296 -3.64656 5
      vertex -2.91919 -2.58618 10
    endloop
  endfacet
  facet normal 0.568065 0.822984 0
    outer loop
      vertex -2.91919 -2.58618 10
      vertex -1.38296 -3.64656 5
      vertex -2.91919 -2.58618 5
    endloop
  endfacet
  facet normal 0.120537 0.992709 0
    outer loop
      vertex 0.470093 -3.87156 10
      vertex 0.470093 -3.87156 5
      vertex -1.38296 -3.64656 10
    endloop
  endfacet
  facet normal 0.120537 0.992709 0
    outer loop
      vertex -1.38296 -3.64656 10
      vertex 0.470093 -3.87156 5
      vertex -1.38296 -3.64656 5
    endloop
  endfacet
  facet normal -0.354605 0.935016 0
    outer loop
      vertex 2.21545 -3.20964 10
      vertex 2.21545 -3.20964 5
      vertex 0.470093 -3.87156 10
    endloop
  endfacet
  facet normal -0.354605 0.935016 0
    outer loop
      vertex 0.470093 -3.87156 10
      vertex 2.21545 -3.20964 5
      vertex 0.470093 -3.87156 5
    endloop
  endfacet
  facet normal -0.748511 0.663123 0
    outer loop
      vertex 3.45328 -1.81242 10
      vertex 3.45328 -1.81242 5
      vertex 2.21545 -3.20964 10
    endloop
  endfacet
  facet normal -0.748511 0.663123 0
    outer loop
      vertex 2.21545 -3.20964 10
      vertex 3.45328 -1.81242 5
      vertex 2.21545 -3.20964 5
    endloop
  endfacet
  facet normal -0.970942 0.239315 0
    outer loop
      vertex 3.9 0 10
      vertex 3.9 0 5
      vertex 3.45328 -1.81242 10
    endloop
  endfacet
  facet normal -0.970942 0.239315 0
    outer loop
      vertex 3.45328 -1.81242 10
      vertex 3.9 0 5
      vertex 3.45328 -1.81242 5
    endloop
  endfacet
  facet normal -0.970942 -0.239315 0
    outer loop
      vertex 3.9 0 10
      vertex 3.45328 1.81242 10
      vertex 3.9 0 5
    endloop
  endfacet
  facet normal -0.970942 -0.239315 0
    outer loop
      vertex 3.9 0 5
      vertex 3.45328 1.81242 10
      vertex 3.45328 1.81242 5
    endloop
  endfacet
  facet normal -0.748511 -0.663123 0
    outer loop
      vertex 3.45328 1.81242 10
      vertex 2.21545 3.20964 10
      vertex 3.45328 1.81242 5
    endloop
  endfacet
  facet normal -0.748511 -0.663123 0
    outer loop
      vertex 3.45328 1.81242 5
      vertex 2.21545 3.20964 10
      vertex 2.21545 3.20964 5
    endloop
  endfacet
  facet normal -0.354605 -0.935016 0
    outer loop
      vertex 2.21545 3.20964 5
      vertex 2.21545 3.20964 10
      vertex 0.470093 3.87156 10
    endloop
  endfacet
  facet normal -0.354605 -0.935016 0
    outer loop
      vertex 0.470093 3.87156 5
      vertex 2.21545 3.20964 5
      vertex 0.470093 3.87156 10
    endloop
  endfacet
  facet normal 0.120537 -0.992709 0
    outer loop
      vertex 0.470093 3.87156 5
      vertex 0.470093 3.87156 10
      vertex -1.38296 3.64656 10
    endloop
  endfacet
  facet normal 0.120537 -0.992709 0
    outer loop
      vertex -1.38296 3.64656 5
      vertex 0.470093 3.87156 5
      vertex -1.38296 3.64656 10
    endloop
  endfacet
  facet normal 0.568065 -0.822984 0
    outer loop
      vertex -1.38296 3.64656 5
      vertex -1.38296 3.64656 10
      vertex -2.91919 2.58618 10
    endloop
  endfacet
  facet normal 0.568065 -0.822984 0
    outer loop
      vertex -2.91919 2.58618 5
      vertex -1.38296 3.64656 5
      vertex -2.91919 2.58618 10
    endloop
  endfacet
  facet normal 0.885456 -0.464723 0
    outer loop
      vertex -2.91919 2.58618 5
      vertex -2.91919 2.58618 10
      vertex -3.78667 0.933331 10
    endloop
  endfacet
  facet normal 0.885456 -0.464723 0
    outer loop
      vertex -3.78667 0.933331 5
      vertex -2.91919 2.58618 5
      vertex -3.78667 0.933331 10
    endloop
  endfacet
endsolid OpenSCAD_Model
